<svg width="24" height="24" viewBox="0 0 24 24" fill="none" xmlns="http://www.w3.org/2000/svg">
<path d="M12.0005 2.06543C17.2457 2.0656 21.4976 5.79618 21.4976 10.3975C21.4973 14.9985 17.2456 18.7283 12.0005 18.7285V21.9346C8.83466 21.2519 2.50271 17.9886 2.50244 10.3975C2.50244 5.79607 6.75506 2.06543 12.0005 2.06543ZM12.0933 6.35352C9.48237 6.35371 7.36587 8.19519 7.36572 10.4668C7.36583 12.7384 9.48234 14.5799 12.0933 14.5801C13.7561 14.58 15.2172 13.8323 16.0601 12.7031C15.0954 12.3697 14.4058 11.496 14.4058 10.4668C14.4059 9.43745 15.0952 8.56281 16.0601 8.22949C15.2171 7.10081 13.7556 6.35356 12.0933 6.35352Z" fill="#0160FF"/>
</svg>
