<svg width="27" height="20" viewBox="0 0 27 20" fill="none" xmlns="http://www.w3.org/2000/svg">
<ellipse cx="13.4677" cy="12.8971" rx="7.36659" ry="7.07165" fill="url(#paint0_linear_249_233)"/>
<path fill-rule="evenodd" clip-rule="evenodd" d="M27 12.9595C27 13.7245 26.931 14.4739 26.7985 15.2025H20.4449C20.6973 14.4888 20.8341 13.7239 20.8341 12.9283C20.8341 9.02278 17.536 5.8567 13.4675 5.8567C9.39909 5.8567 6.10096 9.02278 6.10096 12.9283C6.10096 13.7239 6.23781 14.4888 6.49016 15.2025H0.201465C0.0690401 14.4739 0 13.7245 0 12.9595C0 5.80217 6.04416 0 13.5 0C20.9558 0 27 5.80217 27 12.9595ZM6.49016 15.2025H20.4449C19.4585 17.9924 16.7073 20 13.4675 20C10.2278 20 7.47659 17.9924 6.49016 15.2025Z" fill="url(#paint1_linear_249_233)"/>
<rect x="10.9038" y="10.9658" width="1.16827" height="2.3053" rx="0.584135" fill="url(#paint2_linear_249_233)"/>
<rect x="14.9277" y="10.9658" width="1.16827" height="2.3053" rx="0.584135" fill="url(#paint3_linear_249_233)"/>
<defs>
<linearGradient id="paint0_linear_249_233" x1="13.4677" y1="9.71948" x2="13.4677" y2="16.0746" gradientUnits="userSpaceOnUse">
<stop stop-color="white"/>
<stop offset="1" stop-color="#BFD9FF"/>
</linearGradient>
<linearGradient id="paint1_linear_249_233" x1="13.5" y1="0" x2="13.5" y2="20" gradientUnits="userSpaceOnUse">
<stop stop-color="#6F00FF"/>
<stop offset="0.64" stop-color="#0352FF"/>
<stop offset="1" stop-color="#BF00FF"/>
</linearGradient>
<linearGradient id="paint2_linear_249_233" x1="11.4879" y1="10.9658" x2="11.4879" y2="13.271" gradientUnits="userSpaceOnUse">
<stop stop-color="#8A01FF"/>
<stop offset="1" stop-color="#3A3BFF"/>
</linearGradient>
<linearGradient id="paint3_linear_249_233" x1="15.5119" y1="10.9658" x2="15.5119" y2="13.271" gradientUnits="userSpaceOnUse">
<stop stop-color="#8A01FF"/>
<stop offset="1" stop-color="#3A3BFF"/>
</linearGradient>
</defs>
</svg>
