<svg width="123" height="96" viewBox="0 0 123 96" fill="none" xmlns="http://www.w3.org/2000/svg">
<ellipse cx="26.3716" cy="26.1516" rx="26.3716" ry="26.1516" transform="matrix(0.97824 -0.207474 0.20835 0.978054 25.9907 40.4445)" fill="url(#paint0_linear_255_144)"/>
<path fill-rule="evenodd" clip-rule="evenodd" d="M105.262 46.2812C105.844 49.013 106.17 51.7413 106.256 54.4424L83.8064 59.2038C84.1551 56.4659 84.0568 53.6318 83.4515 50.7907C80.4803 36.843 66.4179 28.0079 52.0423 31.0568C37.6667 34.1057 28.4215 47.8841 31.3927 61.8318C31.998 64.6729 33.0634 67.3019 34.498 69.6616L12.2773 74.3744C11.2551 71.8717 10.441 69.2469 9.85905 66.5151C4.41405 40.9547 21.3567 15.7044 47.7014 10.1169C74.0462 4.52947 99.8169 20.7208 105.262 46.2812ZM34.498 69.6616L83.8064 59.2038C82.4433 69.9065 74.2492 79.1378 62.8019 81.5657C51.3546 83.9935 40.106 78.8858 34.498 69.6616Z" fill="url(#paint1_linear_255_144)"/>
<rect width="4.21983" height="8.44506" rx="2.10992" transform="matrix(0.97824 -0.207474 0.20835 0.978054 46.897 51.3521)" fill="url(#paint2_linear_255_144)"/>
<rect width="4.21983" height="8.44506" rx="2.10992" transform="matrix(0.97824 -0.207474 0.20835 0.978054 61.1157 48.3361)" fill="url(#paint3_linear_255_144)"/>
<rect width="5.97077" height="18.4629" transform="matrix(0.972631 -0.232355 0.233324 0.972399 110.473 20.255)" fill="#0352FF"/>
<ellipse cx="2.98539" cy="2.95407" rx="2.98539" ry="2.95407" transform="matrix(0.972631 -0.232355 0.233324 0.972399 115.814 42.5171)" fill="#0352FF"/>
<defs>
<linearGradient id="paint0_linear_255_144" x1="26.3716" y1="14.4006" x2="26.3716" y2="37.9025" gradientUnits="userSpaceOnUse">
<stop stop-color="white"/>
<stop offset="1" stop-color="#BFD9FF"/>
</linearGradient>
<linearGradient id="paint1_linear_255_144" x1="47.7014" y1="10.1169" x2="62.8527" y2="81.5549" gradientUnits="userSpaceOnUse">
<stop stop-color="#6F00FF"/>
<stop offset="0.64" stop-color="#0352FF"/>
<stop offset="1" stop-color="#BF00FF"/>
</linearGradient>
<linearGradient id="paint2_linear_255_144" x1="2.10992" y1="0" x2="2.10992" y2="8.44506" gradientUnits="userSpaceOnUse">
<stop stop-color="#8A01FF"/>
<stop offset="1" stop-color="#3A3BFF"/>
</linearGradient>
<linearGradient id="paint3_linear_255_144" x1="2.10992" y1="0" x2="2.10992" y2="8.44506" gradientUnits="userSpaceOnUse">
<stop stop-color="#8A01FF"/>
<stop offset="1" stop-color="#3A3BFF"/>
</linearGradient>
</defs>
</svg>
