<svg width="24" height="24" viewBox="0 0 24 24" fill="none" xmlns="http://www.w3.org/2000/svg">
<path d="M11 2.00012V4.50012H3C2.72386 4.50012 2.5 4.72398 2.5 5.00012V21.0001C2.5 21.2763 2.72386 21.5001 3 21.5001H19C19.2761 21.5001 19.5 21.2763 19.5 21.0001V12.0001H22V21.0001C22 22.6052 20.7394 23.9159 19.1543 23.9962L19 24.0001H3L2.8457 23.9962C1.31166 23.9185 0.0816253 22.6885 0.00390625 21.1544L0 21.0001V5.00012C0 3.34327 1.34315 2.00012 3 2.00012H11Z" fill="currentColor"/>
<mask id="path-2-inside-1_999_1041" fill="white">
<rect width="13.9733" height="6.98666" rx="1" transform="matrix(0.705754 -0.708457 0.705754 0.708457 8.50305 10.6064)"/>
</mask>
<rect width="13.9733" height="6.98666" rx="1" transform="matrix(0.705754 -0.708457 0.705754 0.708457 8.50305 10.6064)" stroke="currentColor" stroke-width="3" mask="url(#path-2-inside-1_999_1041)"/>
<path d="M9.45222 10.4997L13.5399 14.6031L8.74302 15.3157L9.45222 10.4997Z" fill="currentColor" stroke="currentColor"/>
</svg>
